<svg width="17" height="16" viewBox="0 0 17 16" fill="none" xmlns="http://www.w3.org/2000/svg">
<g clip-path="url(#clip0_1312_2541)">
<path d="M8.44446 16C12.8627 16 16.4445 12.4183 16.4445 8C16.4445 3.58172 12.8627 0 8.44446 0C4.02618 0 0.444458 3.58172 0.444458 8C0.449239 12.4163 4.02815 15.9952 8.44446 16ZM5.14446 4.7C6.9683 2.88062 9.92061 2.88062 11.7445 4.7C12.0002 4.96484 11.9929 5.38688 11.7281 5.64266C11.4697 5.89219 11.0601 5.89219 10.8018 5.64266C9.4999 4.34109 7.38933 4.34134 6.08777 5.64328C4.78621 6.94522 4.78646 9.05575 6.0884 10.3573C7.39008 11.6587 9.50015 11.6587 10.8018 10.3573C11.0667 10.1015 11.4887 10.1089 11.7445 10.3737C11.994 10.6321 11.994 11.0416 11.7445 11.3C9.92196 13.1225 6.96702 13.1225 5.14449 11.3C3.32193 9.47747 3.32193 6.52253 5.14446 4.7Z" fill="#BEA6FF"/>
</g>
<defs>
<clipPath id="clip0_1312_2541">
<rect width="16" height="16" fill="white" transform="translate(0.444458)"/>
</clipPath>
</defs>
</svg>
