<svg width="1440" height="1024" viewBox="0 0 1440 1024" fill="none" xmlns="http://www.w3.org/2000/svg">
<g clip-path="url(#clip0_1305_4439)">
<g filter="url(#filter0_f_1305_4439)">
<path opacity="0.5" d="M221.877 384.604C219.588 392.225 210.695 395.894 209.317 404.085C209.122 406.288 206.627 410.43 198.218 409.369C190.113 413.919 165.019 405.079 158.891 412.683C154.38 418.281 149.415 425.262 151.167 435.327C152.518 443.088 157.016 450.738 161.574 457.343C168.179 466.91 175.972 475.611 184.392 482.5C211.831 504.957 243.248 510.803 270.435 510.883C303.56 510.982 332.258 498.629 356.414 478.874C366.377 470.727 375.301 461.296 382.16 449.291C388.473 438.239 393.611 425.881 397.575 412.799C402.627 396.145 405.472 377.472 403.356 357.27C401.749 341.904 394.922 327.252 385.469 313.875C372.551 295.588 355.185 285.205 338.369 284.034C327.995 283.313 316.478 287.652 315.998 301.197C315.634 311.53 320.576 323.143 323.782 333.751C325.921 340.841 328.84 350.882 323.947 354.579C315.673 360.834 304.15 362.631 293.716 363.897C280.388 365.516 266.119 362.033 252.247 361.181C244.258 360.691 237.786 364.474 232.102 369.101C227.534 372.822 223.841 378.07 221.877 384.604Z" fill="#9F75FF" fill-opacity="0.43"/>
</g>
<g filter="url(#filter1_f_1305_4439)">
<path opacity="0.5" d="M332.991 384.604C335.28 392.225 344.173 395.894 345.551 404.085C345.747 406.288 348.241 410.43 356.651 409.369C364.756 413.919 389.849 405.079 395.977 412.683C400.487 418.281 405.452 425.262 403.7 435.327C402.349 443.088 397.852 450.738 393.294 457.343C386.689 466.91 378.896 475.611 370.476 482.5C343.037 504.957 311.621 510.803 284.434 510.883C251.308 510.982 222.61 498.629 198.454 478.874C188.491 470.727 179.568 461.296 172.708 449.291C166.395 438.239 161.257 425.881 157.293 412.799C152.242 396.145 149.396 377.472 151.513 357.27C153.119 341.904 159.946 327.252 169.399 313.875C182.317 295.588 199.683 285.205 216.499 284.034C226.873 283.313 238.39 287.652 238.87 301.197C239.235 311.53 234.293 323.143 231.086 333.751C228.947 340.841 226.029 350.882 230.921 354.579C239.195 360.834 250.718 362.631 261.152 363.897C274.48 365.516 288.749 362.033 302.621 361.181C310.61 360.691 317.082 364.474 322.766 369.101C327.334 372.822 331.027 378.07 332.991 384.604Z" fill="#9F75FF" fill-opacity="0.43"/>
</g>
<g filter="url(#filter2_f_1305_4439)">
<path opacity="0.5" d="M1100.91 217.269C1099.26 222.429 1092.85 224.913 1091.86 230.458C1091.72 231.95 1089.92 234.754 1083.86 234.036C1078.01 237.116 1059.93 231.131 1055.51 236.279C1052.26 240.069 1048.68 244.795 1049.94 251.609C1050.92 256.863 1054.16 262.042 1057.44 266.514C1062.21 272.991 1067.82 278.881 1073.89 283.545C1093.67 298.749 1116.31 302.707 1135.91 302.761C1159.78 302.828 1180.47 294.465 1197.88 281.09C1205.06 275.575 1211.49 269.19 1216.44 261.063C1220.99 253.58 1224.69 245.214 1227.55 236.357C1231.19 225.083 1233.24 212.441 1231.71 198.764C1230.55 188.362 1225.63 178.442 1218.82 169.386C1209.51 157.005 1196.99 149.976 1184.87 149.184C1177.39 148.695 1169.09 151.633 1168.75 160.803C1168.49 167.798 1172.05 175.66 1174.36 182.842C1175.9 187.642 1178 194.439 1174.48 196.942C1168.51 201.177 1160.21 202.393 1152.69 203.251C1143.08 204.347 1132.8 201.989 1122.8 201.412C1117.04 201.08 1112.38 203.641 1108.28 206.774C1104.99 209.293 1102.32 212.846 1100.91 217.269Z" fill="#6B04FD"/>
</g>
<g filter="url(#filter3_f_1305_4439)">
<path opacity="0.5" d="M1181 217.269C1182.65 222.429 1189.06 224.913 1190.05 230.458C1190.19 231.95 1191.99 234.754 1198.05 234.036C1203.89 237.116 1221.98 231.131 1226.39 236.279C1229.64 240.069 1233.22 244.795 1231.96 251.609C1230.99 256.863 1227.75 262.042 1224.46 266.514C1219.7 272.991 1214.08 278.881 1208.01 283.545C1188.24 298.749 1165.59 302.707 1146 302.761C1122.12 302.828 1101.44 294.465 1084.03 281.09C1076.85 275.575 1070.41 269.19 1065.47 261.063C1060.92 253.58 1057.22 245.214 1054.36 236.357C1050.72 225.083 1048.67 212.441 1050.19 198.764C1051.35 188.362 1056.27 178.442 1063.08 169.386C1072.4 157.005 1084.91 149.976 1097.03 149.184C1104.51 148.695 1112.81 151.633 1113.16 160.803C1113.42 167.798 1109.86 175.66 1107.55 182.842C1106 187.642 1103.9 194.439 1107.43 196.942C1113.39 201.177 1121.7 202.393 1129.22 203.251C1138.82 204.347 1149.11 201.989 1159.11 201.412C1164.86 201.08 1169.53 203.641 1173.63 206.774C1176.92 209.293 1179.58 212.846 1181 217.269Z" fill="#6B04FD"/>
</g>
<g opacity="0.3" filter="url(#filter4_f_1305_4439)">
<path opacity="0.5" d="M990.701 794.87C988.816 801.152 981.493 804.176 980.359 810.928C980.198 812.744 978.144 816.158 971.22 815.284C964.546 819.034 943.884 811.747 938.839 818.015C935.124 822.629 931.036 828.384 932.479 836.681C933.592 843.078 937.295 849.383 941.048 854.828C946.486 862.714 952.903 869.886 959.836 875.565C982.429 894.076 1008.3 898.895 1030.68 898.961C1057.96 899.042 1081.59 888.86 1101.48 872.576C1109.68 865.86 1117.03 858.087 1122.68 848.191C1127.87 839.081 1132.1 828.895 1135.37 818.111C1139.53 804.383 1141.87 788.991 1140.13 772.339C1138.81 759.673 1133.18 747.595 1125.4 736.569C1114.76 721.495 1100.47 712.936 1086.62 711.972C1078.08 711.377 1068.59 714.954 1068.2 726.119C1067.9 734.636 1071.97 744.208 1074.61 752.953C1076.37 758.797 1078.77 767.073 1074.74 770.121C1067.93 775.277 1058.44 776.758 1049.85 777.802C1038.88 779.136 1027.13 776.265 1015.71 775.563C1009.13 775.159 1003.8 778.277 999.12 782.091C995.359 785.158 992.318 789.484 990.701 794.87Z" fill="#843DFF"/>
</g>
<g opacity="0.3" filter="url(#filter5_f_1305_4439)">
<path opacity="0.5" d="M1082.19 794.87C1084.08 801.152 1091.4 804.176 1092.53 810.928C1092.69 812.744 1094.75 816.158 1101.67 815.284C1108.35 819.034 1129.01 811.747 1134.05 818.015C1137.77 822.629 1141.85 828.384 1140.41 836.681C1139.3 843.078 1135.6 849.383 1131.84 854.828C1126.41 862.714 1119.99 869.886 1113.06 875.565C1090.46 894.076 1064.59 898.895 1042.21 898.961C1014.93 899.042 991.304 888.86 971.414 872.576C963.211 865.86 955.864 858.087 950.215 848.191C945.017 839.081 940.787 828.895 937.523 818.111C933.364 804.383 931.021 788.991 932.764 772.339C934.086 759.673 939.707 747.595 947.491 736.569C958.127 721.495 972.426 712.936 986.273 711.972C994.814 711.377 1004.3 714.954 1004.69 726.119C1004.99 734.636 1000.92 744.208 998.284 752.953C996.522 758.797 994.119 767.073 998.147 770.121C1004.96 775.277 1014.45 776.758 1023.04 777.802C1034.01 779.136 1045.76 776.265 1057.18 775.563C1063.76 775.159 1069.09 778.277 1073.77 782.091C1077.53 785.158 1080.57 789.484 1082.19 794.87Z" fill="#0070F3"/>
</g>
</g>
<defs>
<filter id="filter0_f_1305_4439" x="-99.1936" y="33.9587" width="753.256" height="726.925" filterUnits="userSpaceOnUse" color-interpolation-filters="sRGB">
<feFlood flood-opacity="0" result="BackgroundImageFix"/>
<feBlend mode="normal" in="SourceGraphic" in2="BackgroundImageFix" result="shape"/>
<feGaussianBlur stdDeviation="125" result="effect1_foregroundBlur_1305_4439"/>
</filter>
<filter id="filter1_f_1305_4439" x="-99.1937" y="33.9587" width="753.255" height="726.925" filterUnits="userSpaceOnUse" color-interpolation-filters="sRGB">
<feFlood flood-opacity="0" result="BackgroundImageFix"/>
<feBlend mode="normal" in="SourceGraphic" in2="BackgroundImageFix" result="shape"/>
<feGaussianBlur stdDeviation="125" result="effect1_foregroundBlur_1305_4439"/>
</filter>
<filter id="filter2_f_1305_4439" x="799.684" y="-100.868" width="682.538" height="653.629" filterUnits="userSpaceOnUse" color-interpolation-filters="sRGB">
<feFlood flood-opacity="0" result="BackgroundImageFix"/>
<feBlend mode="normal" in="SourceGraphic" in2="BackgroundImageFix" result="shape"/>
<feGaussianBlur stdDeviation="125" result="effect1_foregroundBlur_1305_4439"/>
</filter>
<filter id="filter3_f_1305_4439" x="799.684" y="-100.868" width="682.537" height="653.629" filterUnits="userSpaceOnUse" color-interpolation-filters="sRGB">
<feFlood flood-opacity="0" result="BackgroundImageFix"/>
<feBlend mode="normal" in="SourceGraphic" in2="BackgroundImageFix" result="shape"/>
<feGaussianBlur stdDeviation="125" result="effect1_foregroundBlur_1305_4439"/>
</filter>
<filter id="filter4_f_1305_4439" x="682.182" y="461.909" width="708.528" height="687.052" filterUnits="userSpaceOnUse" color-interpolation-filters="sRGB">
<feFlood flood-opacity="0" result="BackgroundImageFix"/>
<feBlend mode="normal" in="SourceGraphic" in2="BackgroundImageFix" result="shape"/>
<feGaussianBlur stdDeviation="125" result="effect1_foregroundBlur_1305_4439"/>
</filter>
<filter id="filter5_f_1305_4439" x="682.182" y="461.909" width="708.527" height="687.052" filterUnits="userSpaceOnUse" color-interpolation-filters="sRGB">
<feFlood flood-opacity="0" result="BackgroundImageFix"/>
<feBlend mode="normal" in="SourceGraphic" in2="BackgroundImageFix" result="shape"/>
<feGaussianBlur stdDeviation="125" result="effect1_foregroundBlur_1305_4439"/>
</filter>
<clipPath id="clip0_1305_4439">
<rect width="1440" height="1024" fill="white"/>
</clipPath>
</defs>
</svg>
